<svg width="30" height="30" viewBox="0 0 30 30" fill="none" xmlns="http://www.w3.org/2000/svg">
<path d="M15 27.5C15.7741 27.501 16.5293 27.2607 17.1606 26.8127C17.7919 26.3647 18.2679 25.7311 18.5225 25H11.4775C11.7321 25.7311 12.2081 26.3647 12.8394 26.8127C13.4707 27.2607 14.2259 27.501 15 27.5ZM23.75 18.2325V12.5C23.75 8.47875 21.0187 5.09125 17.3187 4.0725C16.9525 3.15 16.0575 2.5 15 2.5C13.9425 2.5 13.0475 3.15 12.6813 4.0725C8.98125 5.0925 6.25 8.47875 6.25 12.5V18.2325L4.11625 20.3662C3.88181 20.6006 3.75007 20.9185 3.75 21.25V22.5C3.75 22.8315 3.8817 23.1495 4.11612 23.3839C4.35054 23.6183 4.66848 23.75 5 23.75H25C25.3315 23.75 25.6495 23.6183 25.8839 23.3839C26.1183 23.1495 26.25 22.8315 26.25 22.5V21.25C26.2499 20.9185 26.1182 20.6006 25.8838 20.3662L23.75 18.2325Z" fill="#007CFF"/>
</svg>
