<svg width="9" height="9" viewBox="0 0 9 9" fill="none" xmlns="http://www.w3.org/2000/svg">
<circle cx="4.5" cy="4.5" r="4.25" fill="white" stroke="#007CFF" stroke-width="0.5"/>
<g clip-path="url(#clip0_259_1519)">
<path d="M5.74992 4.29175H3.24992V3.25008H5.74992M5.43742 5.54175C5.35454 5.54175 5.27505 5.50882 5.21645 5.45022C5.15784 5.39161 5.12492 5.31213 5.12492 5.22925C5.12492 5.14637 5.15784 5.06688 5.21645 5.00828C5.27505 4.94967 5.35454 4.91675 5.43742 4.91675C5.5203 4.91675 5.59978 4.94967 5.65839 5.00828C5.71699 5.06688 5.74992 5.14637 5.74992 5.22925C5.74992 5.31213 5.71699 5.39161 5.65839 5.45022C5.59978 5.50882 5.5203 5.54175 5.43742 5.54175ZM3.56242 5.54175C3.47954 5.54175 3.40005 5.50882 3.34145 5.45022C3.28284 5.39161 3.24992 5.31213 3.24992 5.22925C3.24992 5.14637 3.28284 5.06688 3.34145 5.00828C3.40005 4.94967 3.47954 4.91675 3.56242 4.91675C3.6453 4.91675 3.72478 4.94967 3.78339 5.00828C3.84199 5.06688 3.87492 5.14637 3.87492 5.22925C3.87492 5.31213 3.84199 5.39161 3.78339 5.45022C3.72478 5.50882 3.6453 5.54175 3.56242 5.54175ZM2.83325 5.33341C2.83325 5.51675 2.9145 5.68133 3.04159 5.79591V6.16675C3.04159 6.222 3.06353 6.27499 3.1026 6.31406C3.14167 6.35313 3.19467 6.37508 3.24992 6.37508H3.45825C3.51351 6.37508 3.5665 6.35313 3.60557 6.31406C3.64464 6.27499 3.66659 6.222 3.66659 6.16675V5.95841H5.33325V6.16675C5.33325 6.222 5.3552 6.27499 5.39427 6.31406C5.43334 6.35313 5.48633 6.37508 5.54159 6.37508H5.74992C5.80517 6.37508 5.85816 6.35313 5.89723 6.31406C5.9363 6.27499 5.95825 6.222 5.95825 6.16675V5.79591C6.08534 5.68133 6.16659 5.51675 6.16659 5.33341V3.25008C6.16659 2.52091 5.42075 2.41675 4.49992 2.41675C3.57909 2.41675 2.83325 2.52091 2.83325 3.25008V5.33341Z" fill="#007CFF"/>
</g>
<defs>
<clipPath id="clip0_259_1519">
<rect width="5" height="5" fill="white" transform="translate(2 2)"/>
</clipPath>
</defs>
</svg>
