<svg width="20" height="20" viewBox="0 0 20 20" fill="none" xmlns="http://www.w3.org/2000/svg">
<path d="M9.99996 9.58342C9.44742 9.58342 8.91752 9.36392 8.52682 8.97322C8.13612 8.58252 7.91663 8.05262 7.91663 7.50008C7.91663 6.94755 8.13612 6.41764 8.52682 6.02694C8.91752 5.63624 9.44742 5.41675 9.99996 5.41675C10.5525 5.41675 11.0824 5.63624 11.4731 6.02694C11.8638 6.41764 12.0833 6.94755 12.0833 7.50008C12.0833 7.77367 12.0294 8.04458 11.9247 8.29734C11.82 8.5501 11.6666 8.77977 11.4731 8.97322C11.2796 9.16668 11.05 9.32013 10.7972 9.42483C10.5445 9.52953 10.2735 9.58342 9.99996 9.58342ZM9.99996 1.66675C8.45286 1.66675 6.96913 2.28133 5.87517 3.37529C4.78121 4.46925 4.16663 5.95299 4.16663 7.50008C4.16663 11.8751 9.99996 18.3334 9.99996 18.3334C9.99996 18.3334 15.8333 11.8751 15.8333 7.50008C15.8333 5.95299 15.2187 4.46925 14.1247 3.37529C13.0308 2.28133 11.5471 1.66675 9.99996 1.66675Z" fill="#ADB5BD"/>
</svg>
