<svg width="20" height="20" viewBox="0 0 20 20" fill="none" xmlns="http://www.w3.org/2000/svg">
<path d="M3.33337 4.16679C3.33339 4.05597 3.35551 3.94627 3.39843 3.8441C3.44136 3.74194 3.50423 3.64936 3.58337 3.57179C4.49158 2.68149 5.70492 2.17073 6.97642 2.14348C8.24793 2.11624 9.48203 2.57454 10.4275 3.42512L10.72 3.69845C11.3279 4.23104 12.1085 4.52464 12.9167 4.52464C13.7249 4.52464 14.5055 4.23104 15.1134 3.69845L15.3209 3.50929C15.8292 3.10679 16.5934 3.42845 16.6625 4.07262L16.6667 4.16679V11.6668C16.6667 11.7776 16.6446 11.8873 16.6016 11.9895C16.5587 12.0916 16.4958 12.1842 16.4167 12.2618C15.5085 13.1521 14.2952 13.6628 13.0237 13.6901C11.7522 13.7173 10.5181 13.259 9.57254 12.4085L9.28004 12.1351C8.69132 11.6193 7.93985 11.3271 7.15731 11.3097C6.37477 11.2924 5.61107 11.5509 5.00004 12.0401V17.5001C4.99981 17.7125 4.91847 17.9168 4.77267 18.0713C4.62686 18.2257 4.42758 18.3186 4.21554 18.3311C4.00351 18.3435 3.79472 18.2746 3.63185 18.1382C3.46897 18.0019 3.36429 17.8085 3.33921 17.5976L3.33337 17.5001V4.16679Z" fill="#ADB5BD"/>
</svg>
