<svg width="28" height="28" viewBox="0 0 28 28" fill="none" xmlns="http://www.w3.org/2000/svg">
<circle cx="13.6713" cy="13.6713" r="9.5" transform="rotate(-30.1735 13.6713 13.6713)" fill="#007CFF" stroke="#007CFF"/>
<path d="M11.6722 12.2284L8.25226 14.472C8.14177 14.5503 8.06565 14.6426 8.02389 14.7488C7.98213 14.8551 7.97213 14.9624 7.99391 15.0708C8.01568 15.1792 8.06839 15.2755 8.15205 15.3596C8.23571 15.4438 8.34356 15.5011 8.47561 15.5315L18.1478 17.1858C18.2719 17.2099 18.3865 17.1956 18.4918 17.1428C18.597 17.0899 18.6791 17.0192 18.7382 16.9305C18.7972 16.8418 18.8308 16.7387 18.8389 16.6212C18.847 16.5037 18.8159 16.3925 18.7457 16.2874L13.4847 8.00419C13.4064 7.8937 13.3119 7.81634 13.2012 7.7721C13.0905 7.72786 12.9814 7.71642 12.8737 7.73775C12.7661 7.75909 12.671 7.80976 12.5883 7.88975C12.5057 7.96974 12.4499 8.0756 12.4211 8.20732L11.6722 12.2284Z" fill="white"/>
</svg>
