<svg width="25" height="25" viewBox="0 0 25 25" fill="none" xmlns="http://www.w3.org/2000/svg">
<path d="M5.20833 21.875C4.63542 21.875 4.14514 21.6712 3.7375 21.2635C3.32986 20.8559 3.12569 20.3653 3.125 19.7917V5.20833C3.125 4.63542 3.32917 4.14514 3.7375 3.7375C4.14583 3.32986 4.63611 3.12569 5.20833 3.125H11.4583C11.7535 3.125 12.001 3.225 12.201 3.425C12.401 3.625 12.5007 3.87222 12.5 4.16667C12.4993 4.46111 12.3993 4.70868 12.2 4.90937C12.0007 5.11007 11.7535 5.20972 11.4583 5.20833H5.20833V19.7917H11.4583C11.7535 19.7917 12.001 19.8917 12.201 20.0917C12.401 20.2917 12.5007 20.5389 12.5 20.8333C12.4993 21.1278 12.3993 21.3753 12.2 21.576C12.0007 21.7767 11.7535 21.8764 11.4583 21.875H5.20833ZM17.8906 13.5417H10.4167C10.1215 13.5417 9.87431 13.4417 9.675 13.2417C9.47569 13.0417 9.37569 12.7944 9.375 12.5C9.37431 12.2056 9.47431 11.9583 9.675 11.7583C9.87569 11.5583 10.1229 11.4583 10.4167 11.4583H17.8906L15.9375 9.50521C15.7465 9.31424 15.651 9.07986 15.651 8.80208C15.651 8.52431 15.7465 8.28125 15.9375 8.07292C16.1285 7.86458 16.3715 7.7559 16.6667 7.74687C16.9618 7.73785 17.2135 7.83785 17.4219 8.04687L21.1458 11.7708C21.3542 11.9792 21.4583 12.2222 21.4583 12.5C21.4583 12.7778 21.3542 13.0208 21.1458 13.2292L17.4219 16.9531C17.2135 17.1615 16.9663 17.2615 16.6802 17.2531C16.3941 17.2448 16.1465 17.1361 15.9375 16.9271C15.7465 16.7187 15.6556 16.4715 15.6646 16.1854C15.6736 15.8993 15.7733 15.6604 15.9635 15.4688L17.8906 13.5417Z" fill="#212529"/>
</svg>
