<svg width="25" height="25" viewBox="0 0 25 25" fill="none" xmlns="http://www.w3.org/2000/svg">
<path d="M12.4999 2.08325C18.253 2.08325 22.9166 6.74679 22.9166 12.4999C22.9166 18.253 18.253 22.9166 12.4999 22.9166C6.74679 22.9166 2.08325 18.253 2.08325 12.4999C2.08325 6.74679 6.74679 2.08325 12.4999 2.08325ZM12.4999 4.16659C10.2898 4.16659 8.17017 5.04456 6.60736 6.60736C5.04456 8.17017 4.16659 10.2898 4.16659 12.4999C4.16659 14.7101 5.04456 16.8297 6.60736 18.3925C8.17017 19.9553 10.2898 20.8333 12.4999 20.8333C14.7101 20.8333 16.8297 19.9553 18.3925 18.3925C19.9553 16.8297 20.8333 14.7101 20.8333 12.4999C20.8333 10.2898 19.9553 8.17017 18.3925 6.60736C16.8297 5.04456 14.7101 4.16659 12.4999 4.16659ZM12.4999 16.6666C12.7762 16.6666 13.0411 16.7763 13.2365 16.9717C13.4318 17.167 13.5416 17.432 13.5416 17.7083C13.5416 17.9845 13.4318 18.2495 13.2365 18.4448C13.0411 18.6402 12.7762 18.7499 12.4999 18.7499C12.2237 18.7499 11.9587 18.6402 11.7633 18.4448C11.568 18.2495 11.4583 17.9845 11.4583 17.7083C11.4583 17.432 11.568 17.167 11.7633 16.9717C11.9587 16.7763 12.2237 16.6666 12.4999 16.6666ZM12.4999 6.77075C13.3773 6.77078 14.2273 7.07633 14.9039 7.63492C15.5804 8.19351 16.0414 8.97027 16.2075 9.83177C16.3737 10.6933 16.2346 11.5857 15.8143 12.3559C15.3939 13.126 14.7185 13.7257 13.9041 14.052C13.7835 14.0964 13.6747 14.168 13.5864 14.2614C13.5405 14.3135 13.5333 14.3801 13.5343 14.4489L13.5416 14.5833C13.5413 14.8488 13.4396 15.1041 13.2574 15.2972C13.0751 15.4902 12.826 15.6064 12.561 15.622C12.2959 15.6375 12.0349 15.5513 11.8313 15.3809C11.6277 15.2105 11.4969 14.9688 11.4655 14.7051L11.4583 14.5833V14.3228C11.4583 13.1218 12.427 12.401 13.1291 12.1187C13.4148 12.0046 13.6641 11.8148 13.8501 11.5697C14.0361 11.3246 14.1519 11.0335 14.1849 10.7276C14.218 10.4217 14.167 10.1126 14.0377 9.8334C13.9083 9.55425 13.7053 9.31561 13.4505 9.14312C13.1957 8.97064 12.8987 8.87081 12.5915 8.85437C12.2842 8.83792 11.9783 8.90548 11.7066 9.04978C11.4348 9.19409 11.2075 9.40969 11.0491 9.67344C10.8906 9.93718 10.807 10.2391 10.8072 10.5468C10.8072 10.8231 10.6975 11.088 10.5021 11.2834C10.3068 11.4787 10.0418 11.5885 9.76554 11.5885C9.48928 11.5885 9.22432 11.4787 9.02897 11.2834C8.83362 11.088 8.72388 10.8231 8.72388 10.5468C8.72388 9.54532 9.12171 8.58487 9.82985 7.87673C10.538 7.16858 11.4984 6.77075 12.4999 6.77075Z" fill="#212529"/>
</svg>
