<svg width="25" height="25" viewBox="0 0 25 25" fill="none" xmlns="http://www.w3.org/2000/svg">
<path d="M2.83863 21.875C2.64765 21.875 2.47404 21.8274 2.31779 21.7323C2.16154 21.6372 2.04002 21.5111 1.95321 21.3542C1.8664 21.1972 1.81884 21.0278 1.8105 20.8458C1.80217 20.6639 1.84974 20.4861 1.95321 20.3125L11.5886 3.64583C11.6928 3.47222 11.8275 3.34201 11.9928 3.25521C12.1581 3.1684 12.3272 3.125 12.5001 3.125C12.673 3.125 12.8424 3.1684 13.0084 3.25521C13.1744 3.34201 13.3088 3.47222 13.4115 3.64583L23.047 20.3125C23.1511 20.4861 23.199 20.6642 23.1907 20.8469C23.1824 21.0295 23.1345 21.1986 23.047 21.3542C22.9595 21.5097 22.8379 21.6358 22.6824 21.7323C22.5268 21.8288 22.3532 21.8764 22.1615 21.875H2.83863ZM12.5001 18.75C12.7952 18.75 13.0428 18.65 13.2428 18.45C13.4428 18.25 13.5424 18.0028 13.5418 17.7083C13.5411 17.4139 13.4411 17.1667 13.2418 16.9667C13.0424 16.7667 12.7952 16.6667 12.5001 16.6667C12.2049 16.6667 11.9577 16.7667 11.7584 16.9667C11.5591 17.1667 11.4591 17.4139 11.4584 17.7083C11.4577 18.0028 11.5577 18.2503 11.7584 18.451C11.9591 18.6517 12.2063 18.7514 12.5001 18.75ZM12.5001 15.625C12.7952 15.625 13.0428 15.525 13.2428 15.325C13.4428 15.125 13.5424 14.8778 13.5418 14.5833V11.4583C13.5418 11.1632 13.4418 10.916 13.2418 10.7167C13.0418 10.5174 12.7945 10.4174 12.5001 10.4167C12.2056 10.416 11.9584 10.516 11.7584 10.7167C11.5584 10.9174 11.4584 11.1646 11.4584 11.4583V14.5833C11.4584 14.8785 11.5584 15.126 11.7584 15.326C11.9584 15.526 12.2056 15.6257 12.5001 15.625Z" fill="#212529"/>
</svg>
