<svg width="20" height="20" viewBox="0 0 20 20" fill="none" xmlns="http://www.w3.org/2000/svg">
<path d="M14.1667 2.78332C15.4236 3.50904 16.4692 4.55043 17.1999 5.80441C17.9307 7.05839 18.3212 8.48147 18.3329 9.93277C18.3447 11.3841 17.9771 12.8133 17.2668 14.0789C16.5564 15.3445 15.5278 16.4027 14.2828 17.1486C13.0378 17.8945 11.6196 18.3023 10.1685 18.3317C8.71744 18.3611 7.28387 18.011 6.00971 17.316C4.73555 16.6211 3.66497 15.6054 2.90397 14.3696C2.14297 13.1337 1.71792 11.7206 1.67091 10.27L1.66675 9.99999L1.67091 9.72999C1.71758 8.29082 2.13637 6.88829 2.88645 5.65915C3.63652 4.43001 4.69229 3.4162 5.95082 2.71656C7.20936 2.01692 8.6277 1.65532 10.0676 1.66702C11.5075 1.67872 12.9198 2.06332 14.1667 2.78332ZM10.0001 4.99999C9.79597 5.00002 9.59897 5.07496 9.44644 5.21059C9.29391 5.34622 9.19646 5.53312 9.17258 5.73583L9.16675 5.83333V9.99999L9.17425 10.1092C9.19325 10.2537 9.24986 10.3908 9.33842 10.5067L9.41092 10.59L11.9109 13.09L11.9892 13.1583C12.1354 13.2717 12.3151 13.3333 12.5001 13.3333C12.6851 13.3333 12.8648 13.2717 13.0109 13.1583L13.0892 13.0892L13.1584 13.0108C13.2718 12.8647 13.3333 12.685 13.3333 12.5C13.3333 12.315 13.2718 12.1353 13.1584 11.9892L13.0892 11.9108L10.8334 9.65416V5.83333L10.8276 5.73583C10.8037 5.53312 10.7063 5.34622 10.5537 5.21059C10.4012 5.07496 10.2042 5.00002 10.0001 4.99999Z" fill="#ADB5BD"/>
</svg>
